<svg width="45" height="40" viewBox="0 0 45 40" fill="none" xmlns="http://www.w3.org/2000/svg">
<path d="M22.0527 29.9997V8.33301" stroke="#F2436E" stroke-width="3.33333" stroke-linecap="round" stroke-linejoin="round"/>
<path d="M27.5666 21.6667C25.9766 21.2451 24.58 20.3677 23.586 19.1658C22.5921 17.964 22.0543 16.5023 22.0533 15C22.0523 16.5023 21.5146 17.964 20.5206 19.1658C19.5267 20.3677 18.1301 21.2451 16.54 21.6667" stroke="#F2436E" stroke-width="3.33333" stroke-linecap="round" stroke-linejoin="round"/>
<path d="M32.3407 10.8332C32.7636 10.169 33.0123 9.42553 33.0677 8.66022C33.123 7.8949 32.9835 7.1283 32.6599 6.41972C32.3363 5.71113 31.8373 5.07956 31.2014 4.57386C30.5656 4.06816 29.8101 3.70189 28.9932 3.50338C28.1763 3.30488 27.32 3.27946 26.4906 3.42909C25.6611 3.57872 24.8808 3.8994 24.2099 4.3663C23.5389 4.83321 22.9954 5.43383 22.6214 6.12171C22.2474 6.80958 22.0529 7.56627 22.0529 8.33323C22.053 7.56627 21.8585 6.80958 21.4844 6.12171C21.1104 5.43383 20.5669 4.83321 19.896 4.3663C19.2251 3.8994 18.4447 3.57872 17.6153 3.42909C16.7858 3.27946 15.9296 3.30488 15.1127 3.50338C14.2958 3.70189 13.5402 4.06816 12.9044 4.57386C12.2686 5.07956 11.7696 5.71113 11.446 6.41972C11.1224 7.1283 10.9828 7.8949 11.0382 8.66022C11.0935 9.42553 11.3423 10.169 11.7651 10.8332" stroke="#F2436E" stroke-width="3.33333" stroke-linecap="round" stroke-linejoin="round"/>
<path d="M33.0742 8.54199C34.1545 8.79389 35.1573 9.26541 36.0069 9.92085C36.8564 10.5763 37.5304 11.3984 37.9777 12.3251C38.425 13.2517 38.6339 14.2585 38.5886 15.2692C38.5434 16.2799 38.2451 17.268 37.7164 18.1587" stroke="#F2436E" stroke-width="3.33333" stroke-linecap="round" stroke-linejoin="round"/>
<path d="M33.0801 29.9996C34.6982 29.9995 36.2712 29.5152 37.5549 28.6218C38.8387 27.7285 39.7615 26.4759 40.1803 25.0584C40.5991 23.6409 40.4905 22.1377 39.8713 20.7818C39.2521 19.426 38.1569 18.2934 36.7556 17.5596" stroke="#F2436E" stroke-width="3.33333" stroke-linecap="round" stroke-linejoin="round"/>
<path d="M36.6941 29.1387C36.8229 30.0424 36.7461 30.9605 36.4683 31.8362C36.1905 32.7119 35.7177 33.5267 35.0791 34.2303C34.4405 34.9338 33.6497 35.5111 32.7554 35.9266C31.8611 36.3421 30.8824 36.5869 29.8797 36.6459C28.8771 36.7049 27.8717 36.5769 26.9257 36.2697C25.9797 35.9625 25.1132 35.4827 24.3797 34.8599C23.6462 34.2372 23.0613 33.4846 22.661 32.6488C22.2608 31.813 22.0537 30.9116 22.0527 30.0003C22.0516 30.9116 21.8446 31.813 21.4443 32.6488C21.0441 33.4846 20.4591 34.2372 19.7256 34.8599C18.9921 35.4827 18.1256 35.9625 17.1796 36.2697C16.2337 36.5769 15.2283 36.7049 14.2256 36.6459C13.2229 36.5869 12.2442 36.3421 11.35 35.9266C10.4557 35.5111 9.66483 34.9338 9.02622 34.2303C8.38762 33.5267 7.91484 32.7119 7.63707 31.8362C7.35929 30.9605 7.28243 30.0424 7.41123 29.1387" stroke="#F2436E" stroke-width="3.33333" stroke-linecap="round" stroke-linejoin="round"/>
<path d="M11.0265 29.9996C9.40835 29.9995 7.83543 29.5152 6.55168 28.6218C5.26793 27.7285 4.34509 26.4759 3.92627 25.0584C3.50746 23.6409 3.61607 22.1377 4.23527 20.7818C4.85447 19.426 5.94966 18.2934 7.35098 17.5596" stroke="#F2436E" stroke-width="3.33333" stroke-linecap="round" stroke-linejoin="round"/>
<path d="M11.0322 8.54199C9.95195 8.79389 8.94908 9.26541 8.09954 9.92085C7.25 10.5763 6.57605 11.3984 6.12875 12.3251C5.68144 13.2517 5.47251 14.2585 5.51777 15.2692C5.56304 16.2799 5.86131 17.268 6.39 18.1587" stroke="#F2436E" stroke-width="3.33333" stroke-linecap="round" stroke-linejoin="round"/>
</svg>
