<svg width="45" height="40" viewBox="0 0 45 40" fill="none" xmlns="http://www.w3.org/2000/svg">
<path d="M7.35086 23.3334C7.0031 23.3345 6.66213 23.2461 6.36758 23.0784C6.07302 22.9107 5.83698 22.6707 5.68686 22.3862C5.53675 22.1017 5.47872 21.7844 5.51953 21.4712C5.56034 21.158 5.69831 20.8617 5.91741 20.6168L24.1112 3.61678C24.2477 3.47391 24.4337 3.37737 24.6387 3.343C24.8436 3.30862 25.0554 3.33846 25.2391 3.42762C25.4229 3.51677 25.5678 3.65994 25.6501 3.83362C25.7323 4.00731 25.747 4.20119 25.6917 4.38344L22.1632 14.4168C22.0592 14.6693 22.0242 14.941 22.0614 15.2085C22.0986 15.4759 22.2067 15.7312 22.3766 15.9525C22.5464 16.1737 22.7729 16.3543 23.0367 16.4787C23.3004 16.6031 23.5935 16.6677 23.8907 16.6668H36.755C37.1028 16.6657 37.4438 16.7541 37.7383 16.9218C38.0329 17.0895 38.2689 17.3295 38.4191 17.614C38.5692 17.8985 38.6272 18.2158 38.5864 18.529C38.5456 18.8422 38.4076 19.1385 38.1885 19.3834L19.9947 36.3834C19.8582 36.5263 19.6722 36.6228 19.4673 36.6572C19.2623 36.6916 19.0506 36.6618 18.8668 36.5726C18.683 36.4834 18.5381 36.3403 18.4558 36.1666C18.3736 35.9929 18.3589 35.799 18.4142 35.6168L21.9427 25.5834C22.0467 25.3309 22.0817 25.0592 22.0445 24.7918C22.0074 24.5243 21.8992 24.269 21.7293 24.0477C21.5595 23.8265 21.333 23.6459 21.0692 23.5215C20.8055 23.3971 20.5125 23.3326 20.2152 23.3334H7.35086Z" stroke="#F2436E" stroke-width="3.33333" stroke-linecap="round" stroke-linejoin="round"/>
</svg>
